<svg xmlns="http://www.w3.org/2000/svg" viewBox="0 0 512 512">
  <rect width="512" height="512" rx="96" fill="#34d399"/>
  <path d="M243 152c-36 0-64 28-64 64 0 19 8 36 22 48-14 12-22 29-22 48 0 36 28 64 64 64 21 0 40-10 52-26 12 16 31 26 52 26 14 0 25-11 25-25s-11-25-25-25c-8 0-14-6-14-14s6-14 14-14h38c14 0 25-11 25-25s-11-25-25-25h-38c-8 0-14-6-14-14s6-14 14-14c14 0 25-11 25-25s-11-25-25-25c-21 0-40 10-52 26-12-16-31-26-52-26Zm0 50c8 0 14 6 14 14s-6 14-14 14-14-6-14-14 6-14 14-14Zm0 96c8 0 14 6 14 14s-6 14-14 14-14-6-14-14 6-14 14-14Z" fill="#000000"/>
  <path d="M333 178h58M391 178v-44M333 334h58M391 334v44M121 256h58" stroke="#000000" stroke-width="28" stroke-linecap="round"/>
</svg>
